<svg xmlns="http://www.w3.org/2000/svg" viewBox="0 0 100 128" height="24" width="19" role="img" aria-hidden="true"><path d="M50 14c-18.99-.28-37.3 11.76-44.82 29.14-7.95 17.45-4.3 39.36 8.96 53.22 12.48 13.75 33.08 19.14 50.71 13.36 18.88-5.76 33.13-23.92 34.06-43.67 1.41-18.84-9.32-37.78-26.1-46.41C65.82 15.93 57.92 13.99 50 14zm0 9.6c17.84-.32 34.64 13.09 38.39 30.52 4.11 16.54-4.05 35.03-19 43.19-15.16 8.88-36 5.78-47.9-7.15-12.36-12.5-14.46-33.5-4.82-48.2C23.71 30.68 36.68 23.46 50 23.6zM51 36c-9.08 0-16 6-16 16h10c0-4 2-8 6-8s6.4 2.48 5.92 6.46C56.18 56.36 45 58.28 45 68.72V72h10v-2c0-7.18 12-9.64 12-20 0-8-6.82-14-16-14zm-6 42v10h10V78H45z"></path></svg>